<svg width="256" height="256" viewBox="0 0 256 256" fill="none" xmlns="http://www.w3.org/2000/svg">
<g clip-path="url(#clip0_4677_2272)">
<rect width="256" height="256" fill="white"/>
<g clip-path="url(#clip1_4677_2272)">
<rect width="256" height="256" fill="white"/>
<circle cx="128" cy="128" r="128" fill="#333333"/>
<g clip-path="url(#clip2_4677_2272)">
<path d="M25 110.193C25 106.218 28.6286 102.996 33.1047 102.996H65.5235C69.9993 102.996 73.628 106.218 73.628 110.193V143.781C73.628 147.756 69.9993 150.978 65.5235 150.978H33.1047C28.6286 150.978 25 147.756 25 143.781V110.193Z" fill="white"/>
<path d="M29.2607 114.5C29.2607 110.471 32.872 107.204 37.3266 107.204H65.5575C70.0119 107.204 73.6232 110.471 73.6232 114.5V143.682C73.6232 147.711 70.0119 150.977 65.5575 150.977H37.3266C32.872 150.977 29.2607 147.711 29.2607 143.682V114.5Z" fill="url(#paint0_linear_4677_2272)"/>
<path d="M48.2251 127.543L43.5158 129.058L48.2251 130.557V132.947L40.9053 130.237V127.88L48.2251 125.169V127.543Z" fill="white"/>
<path d="M53.1269 136.989H50.96V120.995H53.1269V136.989Z" fill="white"/>
<path d="M63.1378 127.88V130.237L55.8691 132.947V130.557L60.5272 129.058L55.8691 127.543V125.169L63.1378 127.88Z" fill="white"/>
<path d="M83.9885 111.687C86.0957 109.224 89.8399 107.992 95.2215 107.992C100.603 107.992 104.331 109.224 106.406 111.687C108.513 114.118 109.567 118.612 109.567 125.17C109.567 131.727 108.513 136.238 106.406 138.701C104.331 141.132 100.603 142.347 95.2215 142.347C89.8399 142.347 86.0957 141.132 83.9885 138.701C81.8813 136.238 80.8276 131.727 80.8276 125.17C80.8276 118.612 81.8813 114.118 83.9885 111.687ZM100.376 116.245C99.4684 114.678 97.7499 113.894 95.2215 113.894C92.6927 113.894 90.9584 114.678 90.0183 116.245C89.1106 117.812 88.6566 120.787 88.6566 125.17C88.6566 129.552 89.1106 132.527 90.0183 134.094C90.9584 135.662 92.6927 136.445 95.2215 136.445C97.7499 136.445 99.4684 135.662 100.376 134.094C101.316 132.527 101.786 129.552 101.786 125.17C101.786 120.787 101.316 117.812 100.376 116.245ZM91.0395 147.289L92.79 143.403C96.6801 144.746 101.543 145.834 107.378 146.666L105.287 153.191C100.425 152.008 95.6751 150.041 91.0395 147.289Z" fill="white"/>
<path d="M137.271 114.374H125.26C124.32 114.374 123.638 114.566 123.217 114.95C122.828 115.334 122.634 115.957 122.634 116.821V122.483H135.471V127.809H122.634V141.724H115.193V115.334C115.193 113.222 115.858 111.559 117.187 110.343C118.549 109.096 120.348 108.472 122.585 108.472C129.717 108.472 134.742 108.648 137.66 109L137.271 114.374Z" fill="white"/>
<path d="M152.341 117.398C156.815 117.398 159.976 118.358 161.823 120.277C163.703 122.164 164.644 125.379 164.644 129.922C164.644 134.464 163.703 137.679 161.823 139.566C159.976 141.421 156.815 142.349 152.341 142.349C147.834 142.349 144.641 141.421 142.761 139.566C140.913 137.679 139.989 134.464 139.989 129.922C139.989 125.347 140.913 122.116 142.761 120.229C144.641 118.342 147.834 117.398 152.341 117.398ZM152.341 122.724C150.428 122.724 149.147 123.204 148.499 124.164C147.851 125.123 147.527 127.043 147.527 129.922C147.527 132.736 147.851 134.624 148.499 135.583C149.147 136.543 150.428 137.023 152.341 137.023C154.189 137.023 155.437 136.543 156.085 135.583C156.766 134.624 157.106 132.736 157.106 129.922C157.106 127.075 156.782 125.171 156.134 124.212C155.485 123.22 154.221 122.724 152.341 122.724Z" fill="white"/>
<path d="M186.761 117.398L186.032 123.972H184.087C182.498 123.972 180.051 124.516 176.744 125.603V141.725H169.547V118.07H175.139L175.771 121.525C179.046 118.774 182.288 117.398 185.497 117.398H186.761Z" fill="white"/>
<path d="M195.943 118.07L196.429 121.525C199.477 118.774 202.524 117.398 205.571 117.398C208.813 117.398 210.872 118.678 211.747 121.237C214.568 118.678 217.486 117.398 220.5 117.398C222.673 117.398 224.326 117.958 225.46 119.078C226.595 120.197 227.162 121.829 227.162 123.972V141.725H220.014V126.179C220.014 125.155 219.836 124.436 219.479 124.02C219.123 123.604 218.458 123.396 217.486 123.396C216.707 123.396 215.962 123.54 215.249 123.828C214.535 124.116 213.498 124.675 212.136 125.507V141.725H205.231V126.179C205.231 125.155 205.021 124.436 204.599 124.02C204.21 123.604 203.562 123.396 202.654 123.396C201.389 123.396 199.623 124.084 197.353 125.459V141.725H190.205V118.07H195.943Z" fill="white"/>
</g>
</g>
</g>
<defs>
<linearGradient id="paint0_linear_4677_2272" x1="75.3295" y1="143.401" x2="40.6529" y2="100.109" gradientUnits="userSpaceOnUse">
<stop stop-color="#99DD11"/>
<stop offset="1" stop-color="#0CC863"/>
</linearGradient>
<clipPath id="clip0_4677_2272">
<rect width="256" height="256" fill="white"/>
</clipPath>
<clipPath id="clip1_4677_2272">
<rect width="256" height="256" fill="white"/>
</clipPath>
<clipPath id="clip2_4677_2272">
<rect width="206" height="50.2017" fill="white" transform="translate(25 103)"/>
</clipPath>
</defs>
</svg>
